<svg width="1024" height="1024" viewBox="0 0 1024 1024" xmlns="http://www.w3.org/2000/svg"><g id="Artboard" stroke="none" stroke-width="1" fill="none" fill-rule="evenodd"><g id="logo" transform="translate(221)" fill-rule="nonzero"><path d="M538.35 377.482a17.067 17.067 0 00-16.946-19.081H460.8c0 18.851-15.282 34.133-34.133 34.133-18.852 0-34.134-15.282-34.134-34.133H24.73a17.067 17.067 0 00-16.948 19.08A1032.038 1032.038 0 0067.328 616.86C86.938 672.428 102.4 716.306 102.4 768a857.924 857.924 0 01-22.34 193.11 51.2 51.2 0 0049.834 62.89H416.24a51.2 51.2 0 0049.835-62.89A857.924 857.924 0 01443.734 768c0-51.695 15.462-95.573 35.071-151.142a1032.038 1032.038 0 0059.546-239.377z" id="Path" fill="#FFBD4A"/><path d="M0 238.934c0-28.277 22.923-51.2 51.2-51.2h139.435c26.659.038 48.26 21.64 48.298 48.299-.562 18.884 13.506 35.02 32.29 37.035a34.236 34.236 0 0025.327-9.319 33.86 33.86 0 0010.65-24.815c0-28.277 22.923-51.2 51.2-51.2 28.277 0 51.2 22.923 51.2 51.2v117.64a18.517 18.517 0 0014.08 18.655 17.374 17.374 0 0014.029-3.823 17.067 17.067 0 006.024-13.005V236.033c.038-26.659 21.64-48.261 48.299-48.299h2.901c27.971 0 50.703 22.43 51.192 50.284.017.309.025.62.025.933 0 23.74-.614 47.02-1.843 69.206-.505 9.004-7.928 16.062-16.947 16.11h-.956a17.067 17.067 0 01-16.094-17.988c1.165-21.322 1.696-43.73 1.707-66.579a17.689 17.689 0 01-.017-.766c0-9.425-7.641-17.066-17.067-17.066h-2.901c-7.82.01-14.156 6.346-14.165 14.165v122.368a51.2 51.2 0 01-51.2 51.2 51.575 51.575 0 01-8.38-.7c-25.078-4.743-43.132-26.805-42.82-52.326v-117.64c0-9.426-7.641-17.067-17.067-17.067s-17.067 7.64-17.067 17.066a68.54 68.54 0 01-21.282 49.494 67.31 67.31 0 01-50.637 18.636c-36.993-2.74-65.378-33.944-64.614-71.031-.01-7.82-6.346-14.156-14.165-14.165H51.2c-9.426 0-17.067 7.64-17.067 17.066 0 23.109.598 45.773 1.707 67.328.534 9.393-6.634 17.447-16.026 18.006h-.955c-9.071.013-16.568-7.071-17.067-16.128C.614 285.953 0 262.674 0 238.934zm58.385-85.333a17.067 17.067 0 01-15.616-23.893c16.274-37.289 53.08-61.406 93.764-61.44a97.894 97.894 0 0126.966 3.788 119.313 119.313 0 01202.188-27.938 101.171 101.171 0 0143.913-9.984c56.53.057 102.344 45.87 102.4 102.4 0 9.426-7.641 17.067-17.067 17.067-9.425 0-17.066-7.641-17.066-17.067A68.096 68.096 0 00370.534 80.71a17.067 17.067 0 01-24.422-5.12c-17.687-29.54-51.42-45.524-85.483-40.504-34.063 5.02-61.752 30.055-70.165 63.442a17.067 17.067 0 01-24.064 11.127 68.13 68.13 0 00-92.365 33.707 17.067 17.067 0 01-15.65 10.24zm585.258 491.647c7.22 6.06 8.162 16.824 2.103 24.045L404.401 956.917c-6.059 7.22-16.823 8.162-24.044 2.103-7.22-6.058-8.162-16.823-2.103-24.044l241.345-287.624c6.059-7.22 16.823-8.162 24.044-2.104zm-10.97 13.074L391.327 945.946l241.346-287.624zm-188.94 109.679c-47.128 0-85.333-38.205-85.333-85.333 0-47.129 38.205-85.334 85.333-85.334 47.129 0 85.334 38.205 85.334 85.334 0 47.128-38.205 85.333-85.334 85.333zm0-34.133c28.277 0 51.2-22.923 51.2-51.2 0-28.277-22.923-51.2-51.2-51.2-28.277 0-51.2 22.923-51.2 51.2 0 28.277 22.923 51.2 51.2 51.2zm153.6 256c-47.128 0-85.333-38.205-85.333-85.334 0-47.128 38.205-85.333 85.333-85.333 47.129 0 85.334 38.205 85.334 85.333 0 47.129-38.205 85.334-85.334 85.334zm0-34.134c28.277 0 51.2-22.923 51.2-51.2 0-28.277-22.923-51.2-51.2-51.2-28.277 0-51.2 22.923-51.2 51.2 0 28.277 22.923 51.2 51.2 51.2z" id="Shape" fill="#363636"/></g></g></svg>