<svg width="512" height="512" viewBox="0 0 512 512" xmlns="http://www.w3.org/2000/svg"><g id="Artboard" stroke="none" stroke-width="1" fill="none" fill-rule="evenodd"><g id="icon" transform="translate(107)" fill-rule="nonzero"><path d="M268.913 188.557a8.525 8.525 0 00-8.465-9.531h-30.273c0 9.416-7.633 17.05-17.05 17.05-9.416 0-17.05-7.634-17.05-17.05H12.353a8.525 8.525 0 00-8.466 9.53 515.516 515.516 0 0029.744 119.572c9.795 27.758 17.519 49.676 17.519 75.498a428.544 428.544 0 01-11.16 96.46 25.575 25.575 0 0024.894 31.415h143.032a25.575 25.575 0 0024.893-31.415 428.544 428.544 0 01-11.159-96.46c0-25.822 7.724-47.74 17.52-75.498a515.516 515.516 0 0029.743-119.571z" id="Path" fill="#FFBD4A"/><path d="M0 119.35c0-14.124 11.45-25.574 25.575-25.574h69.65c13.316.018 24.106 10.809 24.125 24.125-.28 9.433 6.746 17.493 16.13 18.5a17.101 17.101 0 0012.65-4.655 16.914 16.914 0 005.32-12.395c0-14.125 11.45-25.575 25.575-25.575s25.575 11.45 25.575 25.575v58.762a9.25 9.25 0 007.033 9.318 8.678 8.678 0 007.008-1.91 8.525 8.525 0 003.01-6.495V117.9c.018-13.316 10.808-24.107 24.125-24.125h1.45c13.971 0 25.326 11.203 25.57 25.117.009.154.013.31.013.466 0 11.858-.307 23.487-.92 34.57a8.525 8.525 0 01-8.466 8.047h-.478a8.525 8.525 0 01-8.039-8.986c.582-10.65.847-21.843.853-33.257a8.67 8.67 0 01-.009-.382 8.525 8.525 0 00-8.525-8.525h-1.449a7.084 7.084 0 00-7.076 7.075v61.125a25.575 25.575 0 01-25.575 25.575 25.762 25.762 0 01-4.186-.35c-12.526-2.37-21.545-13.39-21.389-26.138V119.35a8.525 8.525 0 00-17.05 0 34.236 34.236 0 01-10.63 24.722 33.623 33.623 0 01-25.294 9.31c-18.479-1.37-32.657-16.956-32.276-35.482a7.084 7.084 0 00-7.076-7.075H25.575a8.525 8.525 0 00-8.525 8.525c0 11.542.298 22.864.853 33.63a8.525 8.525 0 01-8.005 8.995H9.42a8.525 8.525 0 01-8.525-8.056A655.416 655.416 0 010 119.35zm29.164-42.624a8.525 8.525 0 01-7.8-11.935A51.15 51.15 0 0168.2 34.1a48.9 48.9 0 0113.47 1.892 59.598 59.598 0 01100.995-13.955A50.536 50.536 0 01204.6 17.05c28.238.028 51.122 22.912 51.15 51.15a8.525 8.525 0 01-17.05 0 34.015 34.015 0 00-53.614-27.886 8.525 8.525 0 01-12.199-2.557A42.54 42.54 0 0095.14 49.215a8.525 8.525 0 01-12.02 5.559A34.032 34.032 0 0036.98 71.61a8.525 8.525 0 01-7.817 5.115zM321.507 322.31a8.525 8.525 0 011.051 12.01L202.003 477.992a8.525 8.525 0 11-13.06-10.96L309.496 323.36a8.525 8.525 0 0112.01-1.05zm-5.48 6.53L195.474 472.512 316.028 328.84zm-94.377 54.786c-23.54 0-42.625-19.084-42.625-42.625s19.084-42.625 42.625-42.625S264.275 317.46 264.275 341s-19.084 42.625-42.625 42.625zm0-17.05c14.125 0 25.575-11.45 25.575-25.575s-11.45-25.575-25.575-25.575c-14.124 0-25.575 11.45-25.575 25.575s11.45 25.575 25.575 25.575zm76.725 127.875c-23.54 0-42.625-19.084-42.625-42.625s19.084-42.625 42.625-42.625S341 428.285 341 451.826s-19.084 42.625-42.625 42.625zm0-17.05c14.125 0 25.575-11.45 25.575-25.575s-11.45-25.575-25.575-25.575c-14.124 0-25.575 11.45-25.575 25.575s11.45 25.575 25.575 25.575z" id="Shape" fill="#363636"/></g></g></svg>