<svg version="1.0" xmlns="http://www.w3.org/2000/svg" width="933.333" height="933.333" viewBox="0 0 700 700"><path d="M333.5 1.7c-14.9 3.1-31.3 12.1-41.7 22.8-5.4 5.7-14.8 19-14.8 21.1 0 2.6-2.7 3.6-6.9 2.4-3.9-1-18.5-1.4-24.3-.6-21.4 3.1-42.8 19.1-52.1 39.1-3.4 7.3-2.2 13 3.6 16.5 6.8 4.2 13 1.6 17.8-7.3 11.2-21 35.9-30.5 58.3-22.2 7.6 2.8 10.7 3.1 13.9 1.3 3.6-1.9 4.5-3.3 7.6-11.6 8.6-23.8 29.5-39 54.1-39.7 15.3-.4 30.5 5.8 41.8 17 3.9 4 7.2 7.7 7.2 8.2 0 .5 1.6 2.5 3.6 4.6 4.9 5 9.2 5 18 .1 3.5-2 8.8-4.2 11.7-5 5.2-1.5 15.8-1.9 21-.9 8.2 1.6 19.1 7.5 24.7 13.4 6.6 6.8 11.6 17.8 12.5 27.2.9 9.4 1.3 10.6 4 13.3 5 5 13.5 4.3 17.5-1.4 3.6-5.1 2.3-20.1-2.9-32.8-9-22.2-27.6-37.5-52.2-42.8-9.7-2.1-28.3-.3-37.4 3.6l-4.8 2-5.6-5.4C396.6 13.3 384 6.1 369.5 2.4c-9.2-2.3-26.8-2.7-36-.7zM190.7 129.2c-10.1 2.1-18.9 9.3-24 19.7l-3.2 6.6.1 21.5c.2 27.6.8 36.2 2.8 39.2 4.6 7.1 15.1 6.9 19.5-.3 1.7-2.7 1.9-4.6 1.6-12.8-1-27.4-.7-43.2.9-45.6 4-6 2.1-5.9 57.1-5.9 54.4 0 54.3 0 56.5 5.3.5 1.4 1.2 4.6 1.4 7.1 1.1 12.7 5 22 12.8 30.5 11.3 12.4 28.2 17.8 44.1 14.1 8.1-1.9 12.5-4.1 19.4-9.5 9.4-7.6 15.6-19.5 16.8-32.7.8-9.7 3.4-13.2 10.2-14.1 5.1-.6 8.9 1 11.3 4.9 1.9 3.2 2 5.1 2 45.5V245H298.8c-118.3 0-121.4.1-124.5 2-1.7 1-3.7 2.9-4.3 4.1-1.2 2.1-1.5 9.4-.5 13.8.2 1.4.9 6.1 1.6 10.5.6 4.4 1.2 8.3 1.4 8.6.2.3.6 2.9 1 5.9.8 6.2.5 4.7 4 21.6 1.4 7.1 3 14.6 3.5 16.5.5 1.9 1.1 4.6 1.4 6 2.8 13.9 12.8 47.9 20.7 70 7.4 20.8 21.7 63.2 22.3 66 .3 1.4 1.6 7.4 3 13.5 1.4 6 2.8 13.2 3.1 16 .3 2.7.7 6.1 1 7.5.6 2.6.6 41.9.1 48-.2 1.9-.6 7.8-1 13-.7 9.9-1 13.1-2.7 27-1.4 11.8-1.7 13.6-4.4 29.5-3.2 17.9-3.5 19.7-4.1 21.7-.5 1.8-.9 3.7-2.4 11.8-2.9 16.2 5 31.9 19.7 38.8l5.8 2.7h213l4.9-2.3c12.5-5.8 19.5-15.5 21.2-28.9.4-3.4-.5-10-3.1-22.8-2.1-9.9-3.9-19.6-4.2-21.5-.2-1.9-.8-4.9-1.2-6.6-.9-3.2-.8-3.4 11.9-18.4 6-7.1 55.4-66.1 64.1-76.5 1-1.1 5.7-6.7 10.6-12.5 45.2-53.3 47-55.8 46.4-62-.8-7.3-9.9-11.8-16.5-8.1-1.7 1-11.4 11.6-21.5 23.7-10.1 12-24.7 29.5-32.6 38.9-25.5 30.5-30.9 37-32 38.1-.5.6-2.8 3.3-5 6-2.2 2.6-5.7 6.9-7.9 9.4-4.1 4.8-4.5 5.3-12.3 14.7-6.9 8.3-9.2 10.7-9.7 10.2-.4-.4-1.2-11.7-2.1-28.4-.4-7.2-.7-18.6-.6-23.7l.1-3.6 6.3-.7c34.4-4 58.4-38.5 49.8-71.8-1.1-4.3-3.5-10.6-5.3-14-3.7-7-14.3-18.2-20.4-21.6l-4.1-2.3 4.9-14.1c8.6-24.8 19.4-64.1 24.2-88.7.8-4.1 1.8-8.6 2.1-10 .6-2.8 3.4-19.1 4-23 .2-1.4.6-4.7 1-7.3.4-2.7.9-5.9 1.1-7 .9-4.2.6-11.5-.6-13.6-.6-1.2-2.6-3.1-4.3-4.1-2.8-1.8-5.1-2-19.4-2H490v-42.4c0-24.6.4-43.5 1-45 2.9-7.7 15.6-7.8 20.6-.2 1.3 2.1 1.5 5.7 1.4 21.8-.1 10.6-.3 22.4-.5 26.2-.4 7.6.9 11.6 4.8 14 5.7 3.7 13.5 1.9 16.4-3.8 1.9-3.5 2.6-15.6 2.7-42.6l.1-17.6-3.2-6.4c-4.2-8.4-9.3-13.6-17.2-17.3-5.5-2.6-7.5-3-15-3-7.4-.1-9.5.3-14.9 2.8-7.8 3.5-14.2 10.4-17.3 18.3-2.1 5.5-2.1 7.1-2.3 52.4-.1 45.7-.1 46.7-2.2 49.5-1.1 1.5-3.8 3.4-6 4.1-3.5 1.2-4.3 1.1-8.2-.7-2.5-1.3-4.7-3.2-5.4-4.8-.8-2-1.2-16-1.3-47.3-.2-50-.4-51.5-7.3-60.5-8.4-11.1-22.2-16.2-35.7-13-15.3 3.5-25.7 16.1-27.1 32.6-.9 11.4-4.5 17.5-12.9 21.7-9.3 4.8-20 2.8-26.9-4.8-4.7-5.2-6.4-9.6-7-17.8-1-14.7-9-26-21.8-30.9-3.8-1.4-10.9-1.6-57.3-1.8-29.1 0-54.7.2-56.8.7zm302 314.5c9.3 9.5 11.4 26.5 4.9 39.1-3.4 6.6-14 15.9-19.1 16.8-.5.1-2.9.7-5.3 1.2-2.3.5-4.4.7-4.6.3-.4-.5 1.5-12.3 2.9-17.9.3-1.2.7-3.2 1-4.3.9-4.3 5.7-20.6 9.2-31.2 3.9-12.2 3.3-11.9 11-4z"/><path d="M557.2 562c-24.9 6.5-42.4 28.2-43.7 54-.9 19.1 8.9 38.9 25 50.2 5.3 3.7 15.8 8.3 21.5 9.3 30.4 5.8 59.7-12.6 67.9-42.4 2.4-8.7 2.3-23.4-.2-31.2-5.4-16.8-18.4-31.2-33.7-37.3-7.9-3.2-10.3-3.7-20-4.1-7.1-.3-11.3.1-16.8 1.5zm25.8 23.4c10 3.4 19.3 13.1 22.2 23 3.2 11.4 0 25-8 33.4-13.9 14.7-36.3 15.2-50.2 1.1-6.6-6.6-10.1-15-10.1-24-.2-24.3 23.3-41.4 46.1-33.5z"/></svg>