<?xml version="1.0" encoding="UTF-8"?>
<svg width="512px" height="512px" viewBox="0 0 512 512" version="1.1" xmlns="http://www.w3.org/2000/svg" xmlns:xlink="http://www.w3.org/1999/xlink">
    <!-- Generator: Sketch 54.1 (76490) - https://sketchapp.com -->
    <title>Artboard</title>
    <desc>Created with Sketch.</desc>
    <g id="Artboard" stroke="none" stroke-width="1" fill="none" fill-rule="evenodd">
        <g id="icon" transform="translate(107.000000, 0.000000)" fill-rule="nonzero">
            <path d="M268.912856,188.556635 C269.200326,186.137475 268.439081,183.710906 266.821279,181.889454 C265.203478,180.068002 262.883703,179.025709 260.447523,179.025675 L230.17522,179.025675 C230.17522,188.442139 222.541667,196.075692 213.125203,196.075692 C203.708739,196.075692 196.075187,188.442139 196.075187,179.025675 L12.3528076,179.025675 C9.91655706,179.025709 7.59678257,180.068002 5.9789808,181.889454 C4.36117909,183.710906 3.5999345,186.137475 3.88740371,188.556635 C8.98597603,229.459679 18.9718706,269.603605 33.6311571,308.128398 C43.4263914,335.885825 51.1500488,357.803621 51.1500488,383.62587 C51.0969162,416.098304 47.3531436,448.459486 39.9908131,480.086338 C38.2078151,487.688803 39.9957245,495.689289 44.8454028,501.809517 C49.6950811,507.929745 57.0750876,511.499044 64.8838369,511.500992 L207.916423,511.500992 C215.725172,511.499044 223.105179,507.929745 227.954857,501.809517 C232.804536,495.689289 234.592445,487.688803 232.809447,480.086338 C225.447116,448.459486 221.703344,416.098304 221.650211,383.62587 C221.650211,357.803621 229.373869,335.885825 239.169103,308.128398 C253.82839,269.603605 263.814284,229.459679 268.912856,188.556635 Z" id="Path" fill="#FFBD4A"></path>
            <path d="M0,119.350619 C0,105.225923 11.4503284,93.7755943 25.5750244,93.7755943 L95.224341,93.7755943 C108.54085,93.7943764 119.331331,104.584858 119.350114,117.901367 C119.069128,127.33421 126.096259,135.393868 135.479429,136.400635 C140.155901,136.646703 144.728689,134.964262 148.130541,131.74598 C151.54586,128.53061 153.472495,124.041303 153.450146,119.350619 C153.450146,105.225923 164.900475,93.7755943 179.025171,93.7755943 C193.149866,93.7755943 204.600195,105.225923 204.600195,119.350619 L204.600195,178.1135 C204.440893,182.493474 207.377442,186.383957 211.633327,187.431334 C214.136023,187.849861 216.696526,187.152109 218.640884,185.521731 C220.548668,183.902909 221.648985,181.52772 221.650211,179.025675 L221.650211,117.901367 C221.668994,104.584858 232.459476,93.7943764 245.775984,93.7755943 L247.225236,93.7755943 C261.196993,93.7755943 272.551983,104.979302 272.796244,118.892753 C272.804569,119.047161 272.808785,119.20266 272.808785,119.359143 C272.808785,131.21743 272.501885,142.845541 271.888084,153.928052 C271.635874,158.425928 267.927626,161.951191 263.422751,161.975659 L262.945351,161.975659 C260.687736,161.850268 258.572412,160.833129 257.064772,159.148026 C255.557133,157.462923 254.78069,155.247906 254.906268,152.9903 C255.488138,142.339553 255.753021,131.146588 255.758676,119.733223 C255.753074,119.606388 255.750244,119.478834 255.750244,119.350619 C255.750244,114.642387 251.933467,110.82561 247.225236,110.82561 L245.775984,110.82561 C241.870099,110.830308 238.704925,113.995482 238.700228,117.901367 L238.700228,179.025675 C238.700228,185.808594 236.005724,192.313702 231.209476,197.109949 C226.413229,201.906196 219.908121,204.6007 213.125203,204.6007 C211.722756,204.598318 210.322845,204.481421 208.939424,204.251174 C196.412542,201.881861 187.394269,190.861524 187.550179,178.1135 L187.550179,119.350619 C187.550179,114.642387 183.733402,110.82561 179.025171,110.82561 C174.316939,110.82561 170.500162,114.642387 170.500162,119.350619 C170.47975,128.697065 166.639083,137.628849 159.869477,144.073142 C153.105304,150.567636 143.936286,153.942281 134.575778,153.382451 C116.09704,152.013327 101.918645,136.42683 102.300098,117.901367 C102.2954,113.995482 99.1302256,110.830308 95.224341,110.82561 L25.5750244,110.82561 C20.8667924,110.82561 17.0500162,114.642387 17.0500162,119.350619 C17.0500162,130.893479 17.3483916,142.21469 17.9025171,152.981776 C18.1692835,157.673687 14.5887283,161.696568 9.89753444,161.975659 L9.420134,161.975659 C4.88909272,161.982517 1.14432822,158.443715 0.895125854,153.919526 C0.306900293,142.837016 0,131.208905 0,119.350619 Z M29.1640528,76.7255782 C26.2907081,76.7212259 23.6128695,75.2697194 22.0408945,72.8645118 C20.4689195,70.4593041 20.2143278,67.4240322 21.3636704,64.790567 C29.4927214,46.1645512 47.8774267,34.117784 68.2000649,34.1005376 C72.7561451,34.1008141 77.2898316,34.7378257 81.6695781,35.9930894 C89.9267139,16.8513923 107.58532,3.41536381 128.235809,0.561911463 C148.886298,-2.29154088 169.526787,5.85237829 182.665349,22.0376511 C189.509433,18.7484511 197.006759,17.0438512 204.600195,17.0505214 C232.8379,17.0787168 255.722048,39.9628654 255.750244,68.2005704 C255.750244,72.908802 251.933467,76.7255782 247.225236,76.7255782 C242.517004,76.7255782 238.700228,72.908802 238.700228,68.2005704 C238.731849,55.4817226 231.664964,43.8078393 220.381082,37.9389292 C209.097202,32.0700191 195.481766,32.9867278 185.086452,40.3152686 C183.15401,41.6751572 180.74382,42.1719675 178.431125,41.6871257 C176.11843,41.202284 174.110716,39.7792886 172.887165,37.7577661 C164.052385,23.0020663 147.201841,15.0177285 130.187233,17.5251444 C113.172625,20.0325603 99.3416836,32.5383802 95.1390907,49.2153771 C94.5076903,51.7066257 92.7861026,53.7800814 90.4534061,54.858746 C88.1207106,55.9374111 85.4258808,55.9061576 83.1188293,54.7736826 C74.7967248,50.6901149 65.1689335,50.1781159 56.4606691,53.356021 C47.7524046,56.5339261 40.7173536,63.1266923 36.9814853,71.6105733 C35.6249925,74.71869 32.5552853,76.7272226 29.1640528,76.7255782 Z" id="Shape" fill="#363636"></path>
            <path d="M321.507479,322.309466 C325.114194,325.335859 325.584637,330.713056 322.558244,334.319771 L202.003313,477.991543 C198.97692,481.598258 193.599723,482.068702 189.993009,479.042309 C186.386294,476.015916 185.915851,470.638719 188.942244,467.032004 L309.497175,323.360232 C312.523568,319.753517 317.900765,319.283073 321.507479,322.309466 Z M316.027709,328.840001 L195.472779,472.511773 L316.027709,328.840001 Z M221.650211,383.62587 C198.109052,383.62587 179.025171,364.54199 179.025171,341.00083 C179.025171,317.45967 198.109052,298.375789 221.650211,298.375789 C245.191371,298.375789 264.275252,317.45967 264.275252,341.00083 C264.275252,364.54199 245.191371,383.62587 221.650211,383.62587 Z M221.650211,366.575854 C235.774907,366.575854 247.225236,355.125526 247.225236,341.00083 C247.225236,326.876135 235.774907,315.425805 221.650211,315.425805 C207.525516,315.425805 196.075187,326.876135 196.075187,341.00083 C196.075187,355.125526 207.525516,366.575854 221.650211,366.575854 Z M298.375284,494.450976 C274.834125,494.450976 255.750244,475.367096 255.750244,451.825936 C255.750244,428.284776 274.834125,409.200895 298.375284,409.200895 C321.916444,409.200895 341.000325,428.284776 341.000325,451.825936 C341.000325,475.367096 321.916444,494.450976 298.375284,494.450976 Z M298.375284,477.40096 C312.49998,477.40096 323.950309,465.950632 323.950309,451.825936 C323.950309,437.70124 312.49998,426.250911 298.375284,426.250911 C284.250589,426.250911 272.80026,437.70124 272.80026,451.825936 C272.80026,465.950632 284.250589,477.40096 298.375284,477.40096 Z" id="Shape" fill="#363636"></path>
        </g>
    </g>
</svg>