<?xml version="1.0" encoding="UTF-8"?>
<svg width="1024px" height="1024px" viewBox="0 0 1024 1024" version="1.1" xmlns="http://www.w3.org/2000/svg" xmlns:xlink="http://www.w3.org/1999/xlink">
    <!-- Generator: Sketch 54.1 (76490) - https://sketchapp.com -->
    <title>Artboard</title>
    <desc>Created with Sketch.</desc>
    <g id="Artboard" stroke="none" stroke-width="1" fill="none" fill-rule="evenodd">
        <g id="logo" transform="translate(221.000000, 0.000000)" fill-rule="nonzero">
            <path d="M538.350933,377.481544 C538.926433,372.6385 537.402457,367.780623 534.163693,364.134161 C530.924931,360.487699 526.280851,358.401077 521.403733,358.40101 L460.8,358.40101 C460.8,377.25233 445.517986,392.534344 426.666667,392.534344 C407.815347,392.534344 392.533333,377.25233 392.533333,358.40101 L24.7297418,358.40101 C19.8524824,358.401077 15.2084026,360.487699 11.9696393,364.134161 C8.73087611,367.780623 7.20690012,372.6385 7.7824,377.481544 C17.9895028,459.367521 37.9807956,539.733779 67.328,616.85861 C86.9376,672.427677 102.4,716.306077 102.4,768.00101 C102.293631,833.009299 94.7987738,897.794869 80.0597333,961.110344 C76.4902548,976.330124 80.0695656,992.346721 89.7783943,1004.59913 C99.487223,1016.85154 114.26165,1023.99711 129.8944,1024.00101 L416.238933,1024.00101 C431.871683,1023.99711 446.64611,1016.85154 456.354939,1004.59913 C466.063768,992.346721 469.643078,976.330124 466.0736,961.110344 C451.334559,897.794869 443.839703,833.009299 443.733333,768.00101 C443.733333,716.306077 459.195733,672.427677 478.805333,616.85861 C508.152538,539.733779 528.143831,459.367521 538.350933,377.481544 Z" id="Path" fill="#FFBD4A"></path>
            <path d="M0,238.934344 C0,210.657365 22.9230208,187.734344 51.2,187.734344 L190.634667,187.734344 C217.293693,187.771945 238.895732,209.373984 238.933333,236.03301 C238.370813,254.91712 252.438799,271.052177 271.223467,273.067677 C280.585544,273.560294 289.740051,270.192126 296.5504,263.749277 C303.387708,257.312256 307.24474,248.324874 307.2,238.934344 C307.2,210.657365 330.123022,187.734344 358.4,187.734344 C386.676978,187.734344 409.6,210.657365 409.6,238.934344 L409.6,356.574877 C409.281085,365.34338 415.159919,373.131945 423.68,375.228744 C428.69028,376.066616 433.816288,374.669749 437.7088,371.40581 C441.528095,368.165004 443.730879,363.409987 443.733333,358.40101 L443.733333,236.03301 C443.770935,209.373984 465.372974,187.771945 492.032,187.734344 L494.933333,187.734344 C522.904136,187.734344 545.636294,210.163642 546.125293,238.017719 C546.141959,238.326835 546.1504,238.638138 546.1504,238.95141 C546.1504,262.691144 545.536,285.970077 544.3072,308.156744 C543.802286,317.161281 536.378549,324.218692 527.36,324.267677 L526.404267,324.267677 C521.884628,324.016649 517.649848,321.980385 514.631624,318.606887 C511.613401,315.233391 510.058998,310.799031 510.3104,306.27941 C511.475277,284.957112 512.005559,262.549321 512.016881,239.700299 C512.005666,239.446383 512,239.191026 512,238.934344 C512,229.508685 504.358992,221.867677 494.933333,221.867677 L492.032,221.867677 C484.212601,221.877082 477.87607,228.213612 477.866667,236.03301 L477.866667,358.40101 C477.866667,371.980095 472.472397,385.003017 462.870533,394.604879 C453.268671,404.20674 440.245751,409.60101 426.666667,409.60101 C423.859033,409.596242 421.056476,409.362219 418.286933,408.901277 C393.208702,404.158022 375.154543,382.095824 375.466667,356.574877 L375.466667,238.934344 C375.466667,229.508685 367.825659,221.867677 358.4,221.867677 C348.974341,221.867677 341.333333,229.508685 341.333333,238.934344 C341.292469,257.645491 333.603633,275.526504 320.0512,288.427677 C306.509641,301.42935 288.153697,308.18523 269.4144,307.064477 C232.420832,304.323555 204.03635,273.120119 204.8,236.03301 C204.790596,228.213612 198.454065,221.877082 190.634667,221.867677 L51.2,221.867677 C41.7743403,221.867677 34.1333333,229.508685 34.1333333,238.934344 C34.1333333,262.04261 34.7306667,284.707144 35.84,306.262344 C36.3740539,315.65533 29.2059503,323.70895 19.8144,324.267677 L18.8586667,324.267677 C9.78773444,324.281407 2.29089145,317.19689 1.792,308.139677 C0.6144,285.95301 0,262.674077 0,238.934344 Z M58.3850667,153.601011 C52.6327653,153.592298 47.2718578,150.68645 44.1248377,145.871337 C40.9778174,141.056224 40.4681368,134.979752 42.7690667,129.707678 C59.0430457,92.4192676 95.8483639,68.3022042 136.533333,68.2676779 C145.654392,68.2682313 154.73062,69.5434988 163.498667,72.0564779 C180.029066,33.7356974 215.380768,6.83739825 256.722079,1.12492041 C298.063389,-4.58755743 339.384682,11.716187 365.687467,44.1183445 C379.389001,37.5335202 394.398297,34.1209911 409.6,34.1343445 C466.130562,34.1907905 511.943554,80.0037833 512,136.534345 C512,145.960004 504.358992,153.601011 494.933333,153.601011 C485.507674,153.601011 477.866667,145.960004 477.866667,136.534345 C477.929972,111.071808 463.782398,87.7012408 441.192596,75.9519578 C418.602796,64.202675 391.345333,66.0378829 370.5344,80.7092779 C366.665742,83.4317111 361.840655,84.4263021 357.210749,83.4556716 C352.580842,82.4850412 348.561492,79.6362711 346.112,75.5892779 C328.425185,46.0490586 294.691186,30.0647885 260.628738,35.0845175 C226.566291,40.1042466 198.877394,65.1403119 190.464,98.5268779 C189.199966,103.514241 185.753428,107.665202 181.083479,109.824638 C176.413532,111.984075 171.018609,111.921507 166.4,109.654345 C149.739537,101.479234 130.46515,100.454236 113.031613,106.816253 C95.5980756,113.17827 81.5142333,126.376679 74.0352,143.361011 C71.3195651,149.583315 65.1741551,153.604303 58.3850667,153.601011 Z" id="Shape" fill="#363636"></path>
            <path d="M643.642902,645.248442 C650.863377,651.307139 651.805182,662.072035 645.746485,669.29251 L404.401164,956.916663 C398.342467,964.137137 387.577571,965.078944 380.357098,959.020247 C373.136623,952.96155 372.194818,942.196654 378.253515,934.976179 L619.598836,647.352026 C625.657533,640.131552 636.422429,639.189745 643.642902,645.248442 Z M632.67266,658.322268 L391.32734,945.946421 L632.67266,658.322268 Z M443.733333,768.00101 C396.605036,768.00101 358.4,729.795977 358.4,682.667677 C358.4,635.539379 396.605036,597.334344 443.733333,597.334344 C490.861631,597.334344 529.066667,635.539379 529.066667,682.667677 C529.066667,729.795977 490.861631,768.00101 443.733333,768.00101 Z M443.733333,733.867677 C472.010312,733.867677 494.933333,710.944657 494.933333,682.667677 C494.933333,654.390699 472.010312,631.467677 443.733333,631.467677 C415.456355,631.467677 392.533333,654.390699 392.533333,682.667677 C392.533333,710.944657 415.456355,733.867677 443.733333,733.867677 Z M597.333333,989.867677 C550.205036,989.867677 512,951.662643 512,904.534344 C512,857.406046 550.205036,819.20101 597.333333,819.20101 C644.461631,819.20101 682.666667,857.406046 682.666667,904.534344 C682.666667,951.662643 644.461631,989.867677 597.333333,989.867677 Z M597.333333,955.734344 C625.610312,955.734344 648.533333,932.811324 648.533333,904.534344 C648.533333,876.257365 625.610312,853.334344 597.333333,853.334344 C569.056355,853.334344 546.133333,876.257365 546.133333,904.534344 C546.133333,932.811324 569.056355,955.734344 597.333333,955.734344 Z" id="Shape" fill="#363636"></path>
        </g>
    </g>
</svg>