<?xml version="1.0" standalone="no"?>
<!DOCTYPE svg PUBLIC "-//W3C//DTD SVG 20010904//EN"
 "http://www.w3.org/TR/2001/REC-SVG-20010904/DTD/svg10.dtd">
<svg version="1.0" xmlns="http://www.w3.org/2000/svg"
 width="700.000000pt" height="700.000000pt" viewBox="0 0 700.000000 700.000000"
 preserveAspectRatio="xMidYMid meet">
<metadata>
Created by potrace 1.11, written by Peter Selinger 2001-2013
</metadata>
<g transform="translate(0.000000,700.000000) scale(0.100000,-0.100000)"
fill="#000000" stroke="none">
<path d="M3335 6983 c-149 -31 -313 -121 -417 -228 -54 -57 -148 -190 -148
-211 0 -26 -27 -36 -69 -24 -39 10 -185 14 -243 6 -214 -31 -428 -191 -521
-391 -34 -73 -22 -130 36 -165 68 -42 130 -16 178 73 112 210 359 305 583 222
76 -28 107 -31 139 -13 36 19 45 33 76 116 86 238 295 390 541 397 153 4 305
-58 418 -170 39 -40 72 -77 72 -82 0 -5 16 -25 36 -46 49 -50 92 -50 180 -1
35 20 88 42 117 50 52 15 158 19 210 9 82 -16 191 -75 247 -134 66 -68 116
-178 125 -272 9 -94 13 -106 40 -133 50 -50 135 -43 175 14 36 51 23 201 -29
328 -90 222 -276 375 -522 428 -97 21 -283 3 -374 -36 l-48 -20 -56 54 c-115
113 -241 185 -386 222 -92 23 -268 27 -360 7z"/>
<path d="M1907 5708 c-101 -21 -189 -93 -240 -197 l-32 -66 1 -215 c2 -276 8
-362 28 -392 46 -71 151 -69 195 3 17 27 19 46 16 128 -10 274 -7 432 9 456
40 60 21 59 571 59 544 0 543 0 565 -53 5 -14 12 -46 14 -71 11 -127 50 -220
128 -305 113 -124 282 -178 441 -141 81 19 125 41 194 95 94 76 156 195 168
327 8 97 34 132 102 141 51 6 89 -10 113 -49 19 -32 20 -51 20 -455 l0 -423
-1212 0 c-1183 0 -1214 -1 -1245 -20 -17 -10 -37 -29 -43 -41 -12 -21 -15 -94
-5 -138 2 -14 9 -61 16 -105 6 -44 12 -83 14 -86 2 -3 6 -29 10 -59 8 -62 5
-47 40 -216 14 -71 30 -146 35 -165 5 -19 11 -46 14 -60 28 -139 128 -479 207
-700 74 -208 217 -632 223 -660 3 -14 16 -74 30 -135 14 -60 28 -132 31 -160
3 -27 7 -61 10 -75 6 -26 6 -419 1 -480 -2 -19 -6 -78 -10 -130 -7 -99 -10
-131 -27 -270 -14 -118 -17 -136 -44 -295 -32 -179 -35 -197 -41 -217 -5 -18
-9 -37 -24 -118 -29 -162 50 -319 197 -388 l58 -27 1065 0 1065 0 49 23 c125
58 195 155 212 289 4 34 -5 100 -31 228 -21 99 -39 196 -42 215 -2 19 -8 49
-12 66 -9 32 -8 34 119 184 60 71 554 661 641 765 10 11 57 67 106 125 452
533 470 558 464 620 -8 73 -99 118 -165 81 -17 -10 -114 -116 -215 -237 -101
-120 -247 -295 -326 -389 -255 -305 -309 -370 -320 -381 -5 -6 -28 -33 -50
-60 -22 -26 -57 -69 -79 -94 -41 -48 -45 -53 -123 -147 -69 -83 -92 -107 -97
-102 -4 4 -12 117 -21 284 -4 72 -7 186 -6 237 l1 36 63 7 c344 40 584 385
498 718 -11 43 -35 106 -53 140 -37 70 -143 182 -204 216 l-41 23 49 141 c86
248 194 641 242 887 8 41 18 86 21 100 6 28 34 191 40 230 2 14 6 47 10 73 4
27 9 59 11 70 9 42 6 115 -6 136 -6 12 -26 31 -43 41 -28 18 -51 20 -194 20
l-163 0 0 424 c0 246 4 435 10 450 29 77 156 78 206 2 13 -21 15 -57 14 -218
-1 -106 -3 -224 -5 -262 -4 -76 9 -116 48 -140 57 -37 135 -19 164 38 19 35
26 156 27 426 l1 176 -32 64 c-42 84 -93 136 -172 173 -55 26 -75 30 -150 30
-74 1 -95 -3 -149 -28 -78 -35 -142 -104 -173 -183 -21 -55 -21 -71 -23 -524
-1 -457 -1 -467 -22 -495 -11 -15 -38 -34 -60 -41 -35 -12 -43 -11 -82 7 -25
13 -47 32 -54 48 -8 20 -12 160 -13 473 -2 500 -4 515 -73 605 -84 111 -222
162 -357 130 -153 -35 -257 -161 -271 -326 -9 -114 -45 -175 -129 -217 -93
-48 -200 -28 -269 48 -47 52 -64 96 -70 178 -10 147 -90 260 -218 309 -38 14
-109 16 -573 18 -291 0 -547 -2 -568 -7z m3020 -3145 c93 -95 114 -265 49
-391 -34 -66 -140 -159 -191 -168 -5 -1 -29 -7 -53 -12 -23 -5 -44 -7 -46 -3
-4 5 15 123 29 179 3 12 7 32 10 43 9 43 57 206 92 312 39 122 33 119 110 40z"/>
<path d="M5572 1380 c-249 -65 -424 -282 -437 -540 -9 -191 89 -389 250 -502
53 -37 158 -83 215 -93 304 -58 597 126 679 424 24 87 23 234 -2 312 -54 168
-184 312 -337 373 -79 32 -103 37 -200 41 -71 3 -113 -1 -168 -15z m258 -234
c100 -34 193 -131 222 -230 32 -114 0 -250 -80 -334 -139 -147 -363 -152 -502
-11 -66 66 -101 150 -101 240 -2 243 233 414 461 335z"/>
</g>
</svg>
