<svg xmlns="http://www.w3.org/2000/svg">
<symbol id="add" viewBox="0 0 12 12"> <polygon fill="currentColor" fill-rule="evenodd" clip-rule="evenodd" points="11.25 6.75 6.75 6.75 6.75 11.25 5.25 11.25 5.25 6.75 0.75 6.75 0.75 5.25 5.25 5.25 5.25 0.75 6.75 0.75 6.75 5.25 11.25 5.25"/> </symbol>
<symbol id="arrow-down" viewBox="0 0 12 8"> <polygon fill="currentColor" fill-rule="evenodd" clip-rule="evenodd" points="1.41 0.59 6 5.17 10.59 0.59 12 2 6 8 0 2"/> </symbol>
<symbol id="arrow-up" viewBox="0 0 12 8"> <polygon fill="currentColor" fill-rule="evenodd" clip-rule="evenodd" points="1.41 7.41 6 2.83 10.59 7.41 12 6 6 0 0 6"/> </symbol>
<symbol id="clear" viewBox="0 0 12 12"> <polygon fill="currentColor" fill-rule="evenodd" clip-rule="evenodd" points="11.25 1.8075 10.1925 0.75 6 4.9425 1.8075 0.75 0.75 1.8075 4.9425 6 0.75 10.1925 1.8075 11.25 6 7.0575 10.1925 11.25 11.25 10.1925 7.0575 6"/> </symbol>
<symbol id="delete" viewBox="0 0 12 14"> <path fill="currentColor" fill-rule="evenodd" clip-rule="evenodd" d="M1.5,12.25 C1.5,13.075 2.175,13.75 3,13.75 L9,13.75 C9.825,13.75 10.5,13.075 10.5,12.25 L10.5,3.25 L1.5,3.25 L1.5,12.25 Z M11.25,1 L8.625,1 L7.875,0.25 L4.125,0.25 L3.375,1 L0.75,1 L0.75,2.5 L11.25,2.5 L11.25,1 Z"/> </symbol>
<symbol id="done" viewBox="0 0 18 14"> <polygon fill="currentColor" fill-rule="evenodd" clip-rule="evenodd" points="6 11.2 1.8 7 0.4 8.4 6 14 18 2 16.6 0.6"/> </symbol>
<symbol id="edit" viewBox="0 0 14 14"> <path fill="currentColor" fill-rule="evenodd" clip-rule="evenodd" d="M0.25,10.9375 L0.25,13.75 L3.0625,13.75 L11.3575,5.455 L8.545,2.6425 L0.25,10.9375 Z M13.5325,3.28 C13.825,2.9875 13.825,2.515 13.5325,2.2225 L11.7775,0.4675 C11.485,0.175 11.0125,0.175 10.72,0.4675 L9.3475,1.84 L12.16,4.6525 L13.5325,3.28 Z"/> </symbol>
<symbol id="menu" viewBox="0 0 24 16"> <path fill="currentColor" fill-rule="evenodd" clip-rule="evenodd" d="M0,16 L24,16 L24,13.3333333 L0,13.3333333 L0,16 Z M0,9.33333333 L24,9.33333333 L24,6.66666667 L0,6.66666667 L0,9.33333333 Z M0,0 L0,2.66666667 L24,2.66666667 L24,0 L0,0 Z"/> </symbol>
<symbol id="more" viewBox="0 0 4 16"> <path fill="currentColor" fill-rule="evenodd" clip-rule="evenodd" d="M2,4 C3.1,4 4,3.1 4,2 C4,0.9 3.1,0 2,0 C0.9,0 0,0.9 0,2 C0,3.1 0.9,4 2,4 Z M2,6 C0.9,6 0,6.9 0,8 C0,9.1 0.9,10 2,10 C3.1,10 4,9.1 4,8 C4,6.9 3.1,6 2,6 Z M2,12 C0.9,12 0,12.9 0,14 C0,15.1 0.9,16 2,16 C3.1,16 4,15.1 4,14 C4,12.9 3.1,12 2,12 Z"/> </symbol>
</svg>